<mxfile host="app.diagrams.net" modified="2020-07-16T08:50:17.875Z" agent="5.0 (iPad; CPU OS 12_1_1 like Mac OS X) AppleWebKit/605.1.15 (KHTML, like Gecko) Version/12.0 Mobile/15E148 Safari/604.1" etag="b_BsL6BQuFy4o8FxEBuQ" version="13.4.4" type="github">
  <diagram id="5k38Uwf0u3PKWiMoSwMX" name="Page-1">
    <mxGraphModel dx="1452" dy="1046" grid="1" gridSize="10" guides="1" tooltips="1" connect="1" arrows="1" fold="1" page="0" pageScale="1" pageWidth="827" pageHeight="1169" math="0" shadow="0">
      <root>
        <mxCell id="0" />
        <mxCell id="1" parent="0" />
        <mxCell id="jz85_HqYoIJbby1c3wik-10" style="edgeStyle=orthogonalEdgeStyle;rounded=0;orthogonalLoop=1;jettySize=auto;html=1;entryX=0;entryY=0.5;entryDx=0;entryDy=0;" parent="1" source="jz85_HqYoIJbby1c3wik-1" target="jz85_HqYoIJbby1c3wik-4" edge="1">
          <mxGeometry relative="1" as="geometry" />
        </mxCell>
        <mxCell id="jz85_HqYoIJbby1c3wik-18" style="edgeStyle=orthogonalEdgeStyle;rounded=0;orthogonalLoop=1;jettySize=auto;html=1;entryX=0.4;entryY=0;entryDx=0;entryDy=0;entryPerimeter=0;" parent="1" source="jz85_HqYoIJbby1c3wik-1" target="jz85_HqYoIJbby1c3wik-17" edge="1">
          <mxGeometry relative="1" as="geometry" />
        </mxCell>
        <mxCell id="jz85_HqYoIJbby1c3wik-1" value="Backend&amp;nbsp;" style="rounded=1;whiteSpace=wrap;html=1;" parent="1" vertex="1">
          <mxGeometry x="210" y="360" width="120" height="60" as="geometry" />
        </mxCell>
        <mxCell id="wevQk2u4vDGBZzKrU8n_-20" style="edgeStyle=orthogonalEdgeStyle;rounded=0;orthogonalLoop=1;jettySize=auto;html=1;entryX=1;entryY=0.5;entryDx=0;entryDy=0;" edge="1" parent="1" source="jz85_HqYoIJbby1c3wik-4" target="jz85_HqYoIJbby1c3wik-8">
          <mxGeometry relative="1" as="geometry">
            <Array as="points">
              <mxPoint x="490" y="830" />
            </Array>
          </mxGeometry>
        </mxCell>
        <mxCell id="jz85_HqYoIJbby1c3wik-4" value="Front end" style="rounded=1;whiteSpace=wrap;html=1;" parent="1" vertex="1">
          <mxGeometry x="430" y="450" width="120" height="60" as="geometry" />
        </mxCell>
        <mxCell id="jz85_HqYoIJbby1c3wik-11" style="edgeStyle=orthogonalEdgeStyle;rounded=0;orthogonalLoop=1;jettySize=auto;html=1;" parent="1" source="jz85_HqYoIJbby1c3wik-5" target="jz85_HqYoIJbby1c3wik-4" edge="1">
          <mxGeometry relative="1" as="geometry" />
        </mxCell>
        <mxCell id="jz85_HqYoIJbby1c3wik-12" style="edgeStyle=orthogonalEdgeStyle;rounded=0;orthogonalLoop=1;jettySize=auto;html=1;" parent="1" source="jz85_HqYoIJbby1c3wik-6" edge="1">
          <mxGeometry relative="1" as="geometry">
            <mxPoint x="430" y="480" as="targetPoint" />
            <Array as="points">
              <mxPoint x="410" y="640" />
              <mxPoint x="410" y="480" />
            </Array>
          </mxGeometry>
        </mxCell>
        <mxCell id="wevQk2u4vDGBZzKrU8n_-18" style="edgeStyle=orthogonalEdgeStyle;rounded=0;orthogonalLoop=1;jettySize=auto;html=1;entryX=0.5;entryY=1;entryDx=0;entryDy=0;" edge="1" parent="1" source="jz85_HqYoIJbby1c3wik-6" target="jz85_HqYoIJbby1c3wik-1">
          <mxGeometry relative="1" as="geometry" />
        </mxCell>
        <mxCell id="jz85_HqYoIJbby1c3wik-20" style="edgeStyle=orthogonalEdgeStyle;rounded=0;orthogonalLoop=1;jettySize=auto;html=1;" parent="1" source="jz85_HqYoIJbby1c3wik-7" target="jz85_HqYoIJbby1c3wik-13" edge="1">
          <mxGeometry relative="1" as="geometry" />
        </mxCell>
        <mxCell id="jz85_HqYoIJbby1c3wik-7" value="Reports" style="rounded=1;whiteSpace=wrap;html=1;" parent="1" vertex="1">
          <mxGeometry x="360" y="720" width="120" height="60" as="geometry" />
        </mxCell>
        <mxCell id="jz85_HqYoIJbby1c3wik-8" value="Salary" style="rounded=1;whiteSpace=wrap;html=1;" parent="1" vertex="1">
          <mxGeometry x="210" y="800" width="120" height="60" as="geometry" />
        </mxCell>
        <mxCell id="jz85_HqYoIJbby1c3wik-21" style="edgeStyle=orthogonalEdgeStyle;rounded=0;orthogonalLoop=1;jettySize=auto;html=1;" parent="1" source="jz85_HqYoIJbby1c3wik-9" target="jz85_HqYoIJbby1c3wik-15" edge="1">
          <mxGeometry relative="1" as="geometry" />
        </mxCell>
        <mxCell id="jz85_HqYoIJbby1c3wik-9" value="Projects" style="rounded=1;whiteSpace=wrap;html=1;" parent="1" vertex="1">
          <mxGeometry x="360" y="900" width="120" height="60" as="geometry" />
        </mxCell>
        <mxCell id="wevQk2u4vDGBZzKrU8n_-19" style="edgeStyle=orthogonalEdgeStyle;rounded=0;orthogonalLoop=1;jettySize=auto;html=1;entryX=0.75;entryY=1;entryDx=0;entryDy=0;" edge="1" parent="1" source="jz85_HqYoIJbby1c3wik-13" target="jz85_HqYoIJbby1c3wik-1">
          <mxGeometry relative="1" as="geometry">
            <Array as="points">
              <mxPoint x="610" y="530" />
              <mxPoint x="300" y="530" />
            </Array>
          </mxGeometry>
        </mxCell>
        <mxCell id="wevQk2u4vDGBZzKrU8n_-21" style="edgeStyle=orthogonalEdgeStyle;rounded=0;orthogonalLoop=1;jettySize=auto;html=1;entryX=1;entryY=0.75;entryDx=0;entryDy=0;" edge="1" parent="1" source="jz85_HqYoIJbby1c3wik-13" target="jz85_HqYoIJbby1c3wik-8">
          <mxGeometry relative="1" as="geometry">
            <Array as="points">
              <mxPoint x="600" y="845" />
            </Array>
          </mxGeometry>
        </mxCell>
        <mxCell id="jz85_HqYoIJbby1c3wik-13" value="Reports front" style="rounded=1;whiteSpace=wrap;html=1;" parent="1" vertex="1">
          <mxGeometry x="550" y="720" width="120" height="60" as="geometry" />
        </mxCell>
        <mxCell id="jz85_HqYoIJbby1c3wik-15" value="Projects front" style="rounded=1;whiteSpace=wrap;html=1;" parent="1" vertex="1">
          <mxGeometry x="550" y="900" width="120" height="60" as="geometry" />
        </mxCell>
        <mxCell id="jz85_HqYoIJbby1c3wik-19" style="edgeStyle=orthogonalEdgeStyle;rounded=0;orthogonalLoop=1;jettySize=auto;html=1;entryX=0;entryY=0.5;entryDx=0;entryDy=0;" parent="1" source="jz85_HqYoIJbby1c3wik-17" target="jz85_HqYoIJbby1c3wik-5" edge="1">
          <mxGeometry relative="1" as="geometry">
            <Array as="points">
              <mxPoint x="105" y="480" />
            </Array>
          </mxGeometry>
        </mxCell>
        <mxCell id="jz85_HqYoIJbby1c3wik-17" value="redis&amp;nbsp;" style="aspect=fixed;html=1;points=[];align=center;image;fontSize=12;image=img/lib/mscae/Cache_Redis_Product.svg;" parent="1" vertex="1">
          <mxGeometry x="-10" y="420" width="50" height="42" as="geometry" />
        </mxCell>
        <mxCell id="jz85_HqYoIJbby1c3wik-22" value="C#" style="shape=image;html=1;verticalAlign=top;verticalLabelPosition=bottom;labelBackgroundColor=#ffffff;imageAspect=0;aspect=fixed;image=https://cdn0.iconfinder.com/data/icons/e-learning-coding-tutorial-badge-icons/96/Coding_Icons_-_SOLID-14-128.png" parent="1" vertex="1">
          <mxGeometry x="200" y="400" width="28" height="28" as="geometry" />
        </mxCell>
        <mxCell id="jz85_HqYoIJbby1c3wik-23" value="C#" style="shape=image;html=1;verticalAlign=top;verticalLabelPosition=bottom;labelBackgroundColor=#ffffff;imageAspect=0;aspect=fixed;image=https://cdn0.iconfinder.com/data/icons/e-learning-coding-tutorial-badge-icons/96/Coding_Icons_-_SOLID-14-128.png" parent="1" vertex="1">
          <mxGeometry x="200" y="840" width="28" height="28" as="geometry" />
        </mxCell>
        <mxCell id="jz85_HqYoIJbby1c3wik-26" value="Go" style="shape=image;html=1;verticalAlign=top;verticalLabelPosition=bottom;labelBackgroundColor=#ffffff;imageAspect=0;aspect=fixed;image=https://cdn4.iconfinder.com/data/icons/logos-brands-5/24/go-128.png;imageBackground=#ffffff;" parent="1" vertex="1">
          <mxGeometry x="350" y="760" width="28" height="28" as="geometry" />
        </mxCell>
        <mxCell id="jz85_HqYoIJbby1c3wik-27" value="Go" style="shape=image;html=1;verticalAlign=top;verticalLabelPosition=bottom;labelBackgroundColor=#ffffff;imageAspect=0;aspect=fixed;image=https://cdn4.iconfinder.com/data/icons/logos-brands-5/24/go-128.png;imageBackground=#ffffff;" parent="1" vertex="1">
          <mxGeometry x="350" y="940" width="28" height="28" as="geometry" />
        </mxCell>
        <mxCell id="jz85_HqYoIJbby1c3wik-28" value="Vue.JS" style="shape=image;html=1;verticalAlign=top;verticalLabelPosition=bottom;labelBackgroundColor=#ffffff;imageAspect=0;aspect=fixed;image=https://cdn4.iconfinder.com/data/icons/logos-brands-5/24/vue-dot-js-128.png" parent="1" vertex="1">
          <mxGeometry x="420" y="490" width="32" height="32" as="geometry" />
        </mxCell>
        <mxCell id="jz85_HqYoIJbby1c3wik-29" value="React" style="shape=image;html=1;verticalAlign=top;verticalLabelPosition=bottom;labelBackgroundColor=#ffffff;imageAspect=0;aspect=fixed;image=https://cdn4.iconfinder.com/data/icons/logos-brands-5/24/react-128.png;imageBackground=#ffffff;" parent="1" vertex="1">
          <mxGeometry x="530" y="932" width="36" height="36" as="geometry" />
        </mxCell>
        <mxCell id="wevQk2u4vDGBZzKrU8n_-8" style="edgeStyle=orthogonalEdgeStyle;rounded=0;orthogonalLoop=1;jettySize=auto;html=1;entryX=0;entryY=0.25;entryDx=0;entryDy=0;" edge="1" parent="1" source="wevQk2u4vDGBZzKrU8n_-2" target="jz85_HqYoIJbby1c3wik-1">
          <mxGeometry relative="1" as="geometry" />
        </mxCell>
        <mxCell id="wevQk2u4vDGBZzKrU8n_-9" style="edgeStyle=orthogonalEdgeStyle;rounded=0;orthogonalLoop=1;jettySize=auto;html=1;entryX=0;entryY=0.5;entryDx=0;entryDy=0;" edge="1" parent="1" source="wevQk2u4vDGBZzKrU8n_-2" target="wevQk2u4vDGBZzKrU8n_-4">
          <mxGeometry relative="1" as="geometry" />
        </mxCell>
        <mxCell id="wevQk2u4vDGBZzKrU8n_-2" value="PostreSQL" style="aspect=fixed;html=1;points=[];align=center;image;fontSize=12;image=img/lib/mscae/Azure_Database_for_PostgreSQL_servers.svg;" vertex="1" parent="1">
          <mxGeometry x="10" y="310" width="38" height="50" as="geometry" />
        </mxCell>
        <mxCell id="wevQk2u4vDGBZzKrU8n_-13" style="edgeStyle=orthogonalEdgeStyle;rounded=0;orthogonalLoop=1;jettySize=auto;html=1;" edge="1" parent="1" source="wevQk2u4vDGBZzKrU8n_-3" target="jz85_HqYoIJbby1c3wik-7">
          <mxGeometry relative="1" as="geometry" />
        </mxCell>
        <mxCell id="wevQk2u4vDGBZzKrU8n_-3" value="MongoDB" style="dashed=0;outlineConnect=0;html=1;align=center;labelPosition=center;verticalLabelPosition=bottom;verticalAlign=top;shape=mxgraph.webicons.mongodb;gradientColor=#DFDEDE" vertex="1" parent="1">
          <mxGeometry x="228" y="725" width="50" height="50" as="geometry" />
        </mxCell>
        <mxCell id="wevQk2u4vDGBZzKrU8n_-4" value="Identity" style="rounded=1;whiteSpace=wrap;html=1;" vertex="1" parent="1">
          <mxGeometry x="210" y="280" width="120" height="60" as="geometry" />
        </mxCell>
        <mxCell id="wevQk2u4vDGBZzKrU8n_-5" value="C#" style="shape=image;html=1;verticalAlign=top;verticalLabelPosition=bottom;labelBackgroundColor=#ffffff;imageAspect=0;aspect=fixed;image=https://cdn0.iconfinder.com/data/icons/e-learning-coding-tutorial-badge-icons/96/Coding_Icons_-_SOLID-14-128.png" vertex="1" parent="1">
          <mxGeometry x="200" y="320" width="28" height="28" as="geometry" />
        </mxCell>
        <mxCell id="wevQk2u4vDGBZzKrU8n_-7" style="edgeStyle=orthogonalEdgeStyle;rounded=0;orthogonalLoop=1;jettySize=auto;html=1;entryX=0;entryY=0.25;entryDx=0;entryDy=0;" edge="1" parent="1" source="wevQk2u4vDGBZzKrU8n_-6" target="wevQk2u4vDGBZzKrU8n_-4">
          <mxGeometry relative="1" as="geometry" />
        </mxCell>
        <mxCell id="wevQk2u4vDGBZzKrU8n_-6" value="PostreSQL" style="aspect=fixed;html=1;points=[];align=center;image;fontSize=12;image=img/lib/mscae/Azure_Database_for_PostgreSQL_servers.svg;" vertex="1" parent="1">
          <mxGeometry x="110" y="190" width="38" height="50" as="geometry" />
        </mxCell>
        <mxCell id="wevQk2u4vDGBZzKrU8n_-12" style="edgeStyle=orthogonalEdgeStyle;rounded=0;orthogonalLoop=1;jettySize=auto;html=1;" edge="1" parent="1" source="wevQk2u4vDGBZzKrU8n_-10" target="jz85_HqYoIJbby1c3wik-8">
          <mxGeometry relative="1" as="geometry" />
        </mxCell>
        <mxCell id="wevQk2u4vDGBZzKrU8n_-10" value="MongoDB" style="dashed=0;outlineConnect=0;html=1;align=center;labelPosition=center;verticalLabelPosition=bottom;verticalAlign=top;shape=mxgraph.webicons.mongodb;gradientColor=#DFDEDE" vertex="1" parent="1">
          <mxGeometry x="90" y="805" width="50" height="50" as="geometry" />
        </mxCell>
        <mxCell id="wevQk2u4vDGBZzKrU8n_-15" style="edgeStyle=orthogonalEdgeStyle;rounded=0;orthogonalLoop=1;jettySize=auto;html=1;" edge="1" parent="1" source="wevQk2u4vDGBZzKrU8n_-22" target="jz85_HqYoIJbby1c3wik-9">
          <mxGeometry relative="1" as="geometry" />
        </mxCell>
        <mxCell id="wevQk2u4vDGBZzKrU8n_-11" value="MongoDB" style="dashed=0;outlineConnect=0;html=1;align=center;labelPosition=center;verticalLabelPosition=bottom;verticalAlign=top;shape=mxgraph.webicons.mongodb;gradientColor=#DFDEDE" vertex="1" parent="1">
          <mxGeometry x="98" y="905" width="50" height="50" as="geometry" />
        </mxCell>
        <mxCell id="wevQk2u4vDGBZzKrU8n_-16" value="" style="group" vertex="1" connectable="0" parent="1">
          <mxGeometry x="64" y="454" width="130" height="68" as="geometry" />
        </mxCell>
        <mxCell id="jz85_HqYoIJbby1c3wik-5" value="Notify" style="rounded=1;whiteSpace=wrap;html=1;" parent="wevQk2u4vDGBZzKrU8n_-16" vertex="1">
          <mxGeometry x="10" width="120" height="60" as="geometry" />
        </mxCell>
        <mxCell id="jz85_HqYoIJbby1c3wik-24" value="Kotlin" style="shape=image;html=1;verticalAlign=top;verticalLabelPosition=bottom;labelBackgroundColor=#ffffff;imageAspect=0;aspect=fixed;image=https://cdn4.iconfinder.com/data/icons/logos-brands-5/24/kotlin-128.png" parent="wevQk2u4vDGBZzKrU8n_-16" vertex="1">
          <mxGeometry y="40" width="28" height="28" as="geometry" />
        </mxCell>
        <mxCell id="wevQk2u4vDGBZzKrU8n_-17" style="edgeStyle=orthogonalEdgeStyle;rounded=0;orthogonalLoop=1;jettySize=auto;html=1;entryX=0.25;entryY=1;entryDx=0;entryDy=0;" edge="1" parent="1" source="jz85_HqYoIJbby1c3wik-5" target="jz85_HqYoIJbby1c3wik-1">
          <mxGeometry relative="1" as="geometry" />
        </mxCell>
        <mxCell id="wevQk2u4vDGBZzKrU8n_-22" value="GitHub" style="dashed=0;outlineConnect=0;html=1;align=center;labelPosition=center;verticalLabelPosition=bottom;verticalAlign=top;shape=mxgraph.weblogos.github" vertex="1" parent="1">
          <mxGeometry x="395" y="1000" width="50" height="45" as="geometry" />
        </mxCell>
        <mxCell id="wevQk2u4vDGBZzKrU8n_-23" style="edgeStyle=orthogonalEdgeStyle;rounded=0;orthogonalLoop=1;jettySize=auto;html=1;" edge="1" parent="1" source="wevQk2u4vDGBZzKrU8n_-11" target="jz85_HqYoIJbby1c3wik-9">
          <mxGeometry relative="1" as="geometry">
            <mxPoint x="148" y="930" as="sourcePoint" />
            <mxPoint x="360" y="930" as="targetPoint" />
          </mxGeometry>
        </mxCell>
        <mxCell id="wevQk2u4vDGBZzKrU8n_-25" value="" style="group" vertex="1" connectable="0" parent="1">
          <mxGeometry x="200" y="550" width="130" height="68" as="geometry" />
        </mxCell>
        <mxCell id="jz85_HqYoIJbby1c3wik-6" value="DocsGen" style="rounded=1;whiteSpace=wrap;html=1;" parent="wevQk2u4vDGBZzKrU8n_-25" vertex="1">
          <mxGeometry x="10" width="120" height="60" as="geometry" />
        </mxCell>
        <mxCell id="jz85_HqYoIJbby1c3wik-25" value="Java" style="shape=image;html=1;verticalAlign=top;verticalLabelPosition=bottom;labelBackgroundColor=#ffffff;imageAspect=0;aspect=fixed;image=https://cdn1.iconfinder.com/data/icons/system-black-circles/512/java-128.png" parent="wevQk2u4vDGBZzKrU8n_-25" vertex="1">
          <mxGeometry y="40" width="28" height="28" as="geometry" />
        </mxCell>
      </root>
    </mxGraphModel>
  </diagram>
</mxfile>
